.
..............................Site Info...........................

 -   http://www.scenetime.com  *_*   

Scenetime .Always on time . friendly online private torrent community ..

     We care to share . Join us on  http://www.scenetime.com 

    Be the first to get new release at  http://www.scenetime.com

        Seed back for speed


...................................NFO:.................................................
General
Complete name                            : Pirates of the Caribbean On Stranger Tides.avi
Format                                   : AVI
Format/Info                              : Audio Video Interleave
File size                                : 2.12 GiB
Duration                                 : 2h 16mn
Overall bit rate                         : 2 228 Kbps
Writing application                      : Magic0515

ID                                       : 0
Format                                   : MPEG-4 Visual
Format profile                           : Advanced Simple@L4
Format settings, BVOP                    : No
Format settings, QPel                    : No
Format settings, GMC                     : No warppoints
Format settings, Matrix                  : Default (H.263)
Codec ID                                 : XVID
Codec ID/Hint                            : XviD
Duration                                 : 2h 16mn
Bit rate                                 : 1 960 Kbps
Width                                    : 728 pixels
Height                                   : 408 pixels
Display aspect ratio                     : 16:9
Frame rate                               : 29.970 fps
Color space                              : YUV
Chroma subsampling                       : 4:2:0
Bit depth                                : 8 bits
Scan type                                : Progressive
Compression mode                         : Lossy
Bits/(Pixel*Frame)                       : 0.220
Stream size                              : 1.87 GiB (88%)
Writing library                          : Magic0432

Audio
ID                                       : 1
Format                                   : AC-3
Format/Info                              : Audio Coding 3
Mode extension                           : CM (complete main)
Codec ID                                 : 2000
Duration                                 : 2h 16mn
Bit rate mode                            : Constant
Bit rate                                 : 256 Kbps
Channel(s)                               : 6 channels
Channel positions                        : Front: L C R, Side: L R, LFE
Sampling rate                            : 48.0 KHz
Bit depth                                : 16 bits
Compression mode                         : Lossy
Stream size                              : 250 MiB (11%)
Alignment                                : Aligned on interleaves
Interleave, duration                     : 32 ms (0.96 video frame)

ALL AVI FILES ARE DONE FROM A DVD DISC,WITH NO ENCODING DONE TO THEM AT
ALL TO BRING YOU ORIGINAL DVD QUILITY